G04*
G04 #@! TF.GenerationSoftware,Altium Limited,Altium Designer,20.0.2 (26)*
G04*
G04 Layer_Color=65535*
%FSLAX25Y25*%
%MOIN*%
G70*
G01*
G75*
%ADD10C,0.00984*%
%ADD11C,0.00591*%
%ADD12C,0.01000*%
%ADD13C,0.00787*%
%ADD14R,0.03937X0.03937*%
G36*
X435907Y280402D02*
X435954Y280396D01*
X436012Y280390D01*
X436077Y280384D01*
X436147Y280373D01*
X436299Y280338D01*
X436463Y280285D01*
X436545Y280250D01*
X436627Y280209D01*
X436703Y280162D01*
X436779Y280110D01*
X436785Y280104D01*
X436796Y280098D01*
X436814Y280080D01*
X436843Y280057D01*
X436872Y280028D01*
X436913Y279987D01*
X436954Y279946D01*
X436995Y279899D01*
X437042Y279840D01*
X437083Y279782D01*
X437130Y279712D01*
X437177Y279636D01*
X437218Y279559D01*
X437258Y279472D01*
X437329Y279285D01*
X436826Y279168D01*
Y279173D01*
X436820Y279185D01*
X436814Y279209D01*
X436802Y279238D01*
X436785Y279273D01*
X436767Y279314D01*
X436726Y279402D01*
X436673Y279501D01*
X436603Y279606D01*
X436527Y279700D01*
X436434Y279782D01*
X436422Y279788D01*
X436387Y279811D01*
X436334Y279840D01*
X436258Y279881D01*
X436170Y279916D01*
X436059Y279946D01*
X435936Y279969D01*
X435796Y279975D01*
X435755D01*
X435726Y279969D01*
X435685D01*
X435644Y279963D01*
X435539Y279946D01*
X435422Y279922D01*
X435299Y279881D01*
X435176Y279829D01*
X435059Y279758D01*
X435053D01*
X435047Y279747D01*
X435012Y279717D01*
X434959Y279671D01*
X434895Y279606D01*
X434831Y279524D01*
X434761Y279431D01*
X434696Y279314D01*
X434644Y279185D01*
Y279179D01*
X434638Y279168D01*
X434632Y279150D01*
X434626Y279121D01*
X434614Y279092D01*
X434608Y279051D01*
X434585Y278957D01*
X434562Y278846D01*
X434544Y278723D01*
X434532Y278589D01*
X434526Y278448D01*
Y278442D01*
Y278425D01*
Y278401D01*
Y278366D01*
X434532Y278325D01*
Y278273D01*
X434538Y278220D01*
X434544Y278161D01*
X434562Y278027D01*
X434585Y277881D01*
X434620Y277734D01*
X434667Y277594D01*
Y277588D01*
X434673Y277576D01*
X434685Y277559D01*
X434696Y277535D01*
X434725Y277465D01*
X434772Y277389D01*
X434836Y277296D01*
X434913Y277208D01*
X435000Y277120D01*
X435106Y277044D01*
X435112D01*
X435117Y277038D01*
X435135Y277027D01*
X435158Y277015D01*
X435223Y276991D01*
X435305Y276956D01*
X435398Y276927D01*
X435509Y276898D01*
X435632Y276874D01*
X435761Y276869D01*
X435802D01*
X435831Y276874D01*
X435866D01*
X435913Y276880D01*
X436012Y276898D01*
X436124Y276927D01*
X436246Y276974D01*
X436363Y277032D01*
X436480Y277114D01*
X436486Y277120D01*
X436492Y277126D01*
X436527Y277161D01*
X436580Y277220D01*
X436644Y277296D01*
X436709Y277401D01*
X436779Y277524D01*
X436837Y277676D01*
X436884Y277846D01*
X437393Y277717D01*
Y277711D01*
X437387Y277688D01*
X437375Y277658D01*
X437364Y277611D01*
X437340Y277565D01*
X437317Y277500D01*
X437293Y277436D01*
X437258Y277366D01*
X437182Y277208D01*
X437077Y277050D01*
X436960Y276898D01*
X436890Y276828D01*
X436814Y276763D01*
X436808Y276757D01*
X436796Y276751D01*
X436773Y276734D01*
X436738Y276711D01*
X436697Y276687D01*
X436650Y276658D01*
X436597Y276629D01*
X436533Y276599D01*
X436463Y276570D01*
X436387Y276541D01*
X436299Y276512D01*
X436211Y276488D01*
X436018Y276447D01*
X435913Y276442D01*
X435802Y276436D01*
X435743D01*
X435697Y276442D01*
X435644D01*
X435585Y276447D01*
X435515Y276459D01*
X435445Y276465D01*
X435281Y276500D01*
X435112Y276541D01*
X434948Y276605D01*
X434866Y276640D01*
X434790Y276687D01*
X434784Y276693D01*
X434772Y276699D01*
X434755Y276716D01*
X434725Y276734D01*
X434655Y276793D01*
X434573Y276874D01*
X434474Y276974D01*
X434380Y277103D01*
X434281Y277249D01*
X434199Y277418D01*
Y277424D01*
X434193Y277442D01*
X434181Y277465D01*
X434170Y277500D01*
X434152Y277547D01*
X434135Y277600D01*
X434117Y277658D01*
X434099Y277729D01*
X434082Y277799D01*
X434064Y277881D01*
X434029Y278056D01*
X434006Y278243D01*
X434000Y278448D01*
Y278454D01*
Y278477D01*
Y278507D01*
X434006Y278548D01*
Y278600D01*
X434012Y278664D01*
X434018Y278729D01*
X434029Y278805D01*
X434059Y278969D01*
X434094Y279144D01*
X434152Y279326D01*
X434228Y279495D01*
Y279501D01*
X434240Y279513D01*
X434252Y279536D01*
X434269Y279571D01*
X434293Y279606D01*
X434322Y279647D01*
X434398Y279747D01*
X434485Y279858D01*
X434597Y279969D01*
X434731Y280080D01*
X434877Y280174D01*
X434883D01*
X434895Y280186D01*
X434918Y280197D01*
X434953Y280209D01*
X434989Y280226D01*
X435036Y280250D01*
X435094Y280267D01*
X435152Y280291D01*
X435217Y280314D01*
X435287Y280332D01*
X435445Y280373D01*
X435620Y280396D01*
X435808Y280408D01*
X435866D01*
X435907Y280402D01*
D02*
G37*
G36*
X439809Y277851D02*
X440330D01*
Y277418D01*
X439809D01*
Y276500D01*
X439335D01*
Y277418D01*
X437668D01*
Y277851D01*
X439423Y280338D01*
X439809D01*
Y277851D01*
D02*
G37*
G36*
X405665Y293402D02*
X405712Y293396D01*
X405770Y293390D01*
X405834Y293384D01*
X405905Y293373D01*
X406057Y293338D01*
X406221Y293285D01*
X406302Y293250D01*
X406384Y293209D01*
X406460Y293162D01*
X406536Y293109D01*
X406542Y293104D01*
X406554Y293098D01*
X406572Y293080D01*
X406601Y293057D01*
X406630Y293028D01*
X406671Y292987D01*
X406712Y292946D01*
X406753Y292899D01*
X406800Y292840D01*
X406841Y292782D01*
X406887Y292712D01*
X406934Y292636D01*
X406975Y292560D01*
X407016Y292472D01*
X407086Y292285D01*
X406583Y292168D01*
Y292174D01*
X406577Y292185D01*
X406572Y292209D01*
X406560Y292238D01*
X406542Y292273D01*
X406525Y292314D01*
X406484Y292402D01*
X406431Y292501D01*
X406361Y292606D01*
X406285Y292700D01*
X406191Y292782D01*
X406180Y292788D01*
X406145Y292811D01*
X406092Y292840D01*
X406016Y292881D01*
X405928Y292916D01*
X405817Y292946D01*
X405694Y292969D01*
X405554Y292975D01*
X405513D01*
X405483Y292969D01*
X405442D01*
X405402Y292963D01*
X405296Y292946D01*
X405179Y292922D01*
X405056Y292881D01*
X404934Y292829D01*
X404817Y292758D01*
X404811D01*
X404805Y292747D01*
X404770Y292718D01*
X404717Y292671D01*
X404653Y292606D01*
X404589Y292524D01*
X404518Y292431D01*
X404454Y292314D01*
X404401Y292185D01*
Y292179D01*
X404395Y292168D01*
X404390Y292150D01*
X404384Y292121D01*
X404372Y292092D01*
X404366Y292051D01*
X404343Y291957D01*
X404319Y291846D01*
X404302Y291723D01*
X404290Y291588D01*
X404284Y291448D01*
Y291442D01*
Y291425D01*
Y291401D01*
Y291366D01*
X404290Y291325D01*
Y291273D01*
X404296Y291220D01*
X404302Y291161D01*
X404319Y291027D01*
X404343Y290881D01*
X404378Y290734D01*
X404425Y290594D01*
Y290588D01*
X404430Y290576D01*
X404442Y290559D01*
X404454Y290535D01*
X404483Y290465D01*
X404530Y290389D01*
X404594Y290296D01*
X404670Y290208D01*
X404758Y290120D01*
X404863Y290044D01*
X404869D01*
X404875Y290038D01*
X404893Y290026D01*
X404916Y290015D01*
X404980Y289991D01*
X405062Y289956D01*
X405156Y289927D01*
X405267Y289898D01*
X405390Y289874D01*
X405519Y289869D01*
X405559D01*
X405589Y289874D01*
X405624D01*
X405671Y289880D01*
X405770Y289898D01*
X405881Y289927D01*
X406004Y289974D01*
X406121Y290032D01*
X406238Y290114D01*
X406244Y290120D01*
X406250Y290126D01*
X406285Y290161D01*
X406338Y290219D01*
X406402Y290296D01*
X406466Y290401D01*
X406536Y290524D01*
X406595Y290676D01*
X406642Y290845D01*
X407151Y290717D01*
Y290711D01*
X407145Y290688D01*
X407133Y290658D01*
X407122Y290612D01*
X407098Y290565D01*
X407075Y290500D01*
X407051Y290436D01*
X407016Y290366D01*
X406940Y290208D01*
X406835Y290050D01*
X406718Y289898D01*
X406648Y289828D01*
X406572Y289763D01*
X406566Y289757D01*
X406554Y289752D01*
X406531Y289734D01*
X406496Y289711D01*
X406455Y289687D01*
X406408Y289658D01*
X406355Y289629D01*
X406291Y289599D01*
X406221Y289570D01*
X406145Y289541D01*
X406057Y289512D01*
X405969Y289488D01*
X405776Y289447D01*
X405671Y289441D01*
X405559Y289436D01*
X405501D01*
X405454Y289441D01*
X405402D01*
X405343Y289447D01*
X405273Y289459D01*
X405203Y289465D01*
X405039Y289500D01*
X404869Y289541D01*
X404705Y289605D01*
X404624Y289640D01*
X404548Y289687D01*
X404542Y289693D01*
X404530Y289699D01*
X404512Y289716D01*
X404483Y289734D01*
X404413Y289792D01*
X404331Y289874D01*
X404232Y289974D01*
X404138Y290103D01*
X404038Y290249D01*
X403957Y290418D01*
Y290424D01*
X403951Y290442D01*
X403939Y290465D01*
X403927Y290500D01*
X403910Y290547D01*
X403892Y290600D01*
X403875Y290658D01*
X403857Y290728D01*
X403840Y290799D01*
X403822Y290881D01*
X403787Y291056D01*
X403764Y291243D01*
X403758Y291448D01*
Y291454D01*
Y291477D01*
Y291507D01*
X403764Y291547D01*
Y291600D01*
X403769Y291665D01*
X403775Y291729D01*
X403787Y291805D01*
X403816Y291969D01*
X403851Y292144D01*
X403910Y292326D01*
X403986Y292495D01*
Y292501D01*
X403998Y292513D01*
X404009Y292536D01*
X404027Y292571D01*
X404050Y292606D01*
X404079Y292647D01*
X404155Y292747D01*
X404243Y292858D01*
X404354Y292969D01*
X404489Y293080D01*
X404635Y293174D01*
X404641D01*
X404653Y293185D01*
X404676Y293197D01*
X404711Y293209D01*
X404746Y293227D01*
X404793Y293250D01*
X404852Y293267D01*
X404910Y293291D01*
X404975Y293314D01*
X405045Y293332D01*
X405203Y293373D01*
X405378Y293396D01*
X405565Y293408D01*
X405624D01*
X405665Y293402D01*
D02*
G37*
G36*
X409362Y289500D02*
X408888D01*
Y292507D01*
X408882Y292501D01*
X408859Y292478D01*
X408818Y292448D01*
X408765Y292407D01*
X408701Y292355D01*
X408625Y292302D01*
X408537Y292238D01*
X408438Y292179D01*
X408432D01*
X408426Y292174D01*
X408391Y292150D01*
X408338Y292121D01*
X408274Y292086D01*
X408198Y292045D01*
X408116Y292010D01*
X408028Y291969D01*
X407946Y291934D01*
Y292396D01*
X407952D01*
X407964Y292402D01*
X407987Y292413D01*
X408011Y292431D01*
X408046Y292448D01*
X408087Y292466D01*
X408180Y292519D01*
X408286Y292583D01*
X408403Y292659D01*
X408520Y292747D01*
X408631Y292840D01*
X408637Y292846D01*
X408642Y292852D01*
X408678Y292887D01*
X408730Y292940D01*
X408795Y293004D01*
X408865Y293086D01*
X408935Y293174D01*
X408999Y293267D01*
X409052Y293361D01*
X409362D01*
Y289500D01*
D02*
G37*
G36*
X403009D02*
X402500D01*
Y293343D01*
X403009D01*
Y289500D01*
D02*
G37*
G36*
X431907Y299402D02*
X431954Y299396D01*
X432012Y299390D01*
X432077Y299384D01*
X432147Y299373D01*
X432299Y299338D01*
X432463Y299285D01*
X432545Y299250D01*
X432627Y299209D01*
X432703Y299162D01*
X432779Y299110D01*
X432785Y299104D01*
X432796Y299098D01*
X432814Y299080D01*
X432843Y299057D01*
X432872Y299028D01*
X432913Y298987D01*
X432954Y298946D01*
X432995Y298899D01*
X433042Y298840D01*
X433083Y298782D01*
X433130Y298712D01*
X433177Y298636D01*
X433217Y298559D01*
X433258Y298472D01*
X433329Y298285D01*
X432826Y298168D01*
Y298173D01*
X432820Y298185D01*
X432814Y298209D01*
X432802Y298238D01*
X432785Y298273D01*
X432767Y298314D01*
X432726Y298402D01*
X432673Y298501D01*
X432603Y298606D01*
X432527Y298700D01*
X432434Y298782D01*
X432422Y298788D01*
X432387Y298811D01*
X432334Y298840D01*
X432258Y298881D01*
X432170Y298916D01*
X432059Y298946D01*
X431936Y298969D01*
X431796Y298975D01*
X431755D01*
X431726Y298969D01*
X431685D01*
X431644Y298963D01*
X431539Y298946D01*
X431422Y298922D01*
X431299Y298881D01*
X431176Y298829D01*
X431059Y298758D01*
X431053D01*
X431047Y298747D01*
X431012Y298717D01*
X430959Y298671D01*
X430895Y298606D01*
X430831Y298524D01*
X430760Y298431D01*
X430696Y298314D01*
X430644Y298185D01*
Y298179D01*
X430638Y298168D01*
X430632Y298150D01*
X430626Y298121D01*
X430614Y298092D01*
X430608Y298051D01*
X430585Y297957D01*
X430562Y297846D01*
X430544Y297723D01*
X430532Y297588D01*
X430526Y297448D01*
Y297442D01*
Y297425D01*
Y297401D01*
Y297366D01*
X430532Y297325D01*
Y297273D01*
X430538Y297220D01*
X430544Y297161D01*
X430562Y297027D01*
X430585Y296881D01*
X430620Y296734D01*
X430667Y296594D01*
Y296588D01*
X430673Y296576D01*
X430685Y296559D01*
X430696Y296535D01*
X430725Y296465D01*
X430772Y296389D01*
X430836Y296296D01*
X430913Y296208D01*
X431000Y296120D01*
X431106Y296044D01*
X431111D01*
X431117Y296038D01*
X431135Y296026D01*
X431158Y296015D01*
X431223Y295991D01*
X431305Y295956D01*
X431398Y295927D01*
X431509Y295898D01*
X431632Y295874D01*
X431761Y295869D01*
X431802D01*
X431831Y295874D01*
X431866D01*
X431913Y295880D01*
X432012Y295898D01*
X432124Y295927D01*
X432246Y295974D01*
X432363Y296032D01*
X432480Y296114D01*
X432486Y296120D01*
X432492Y296126D01*
X432527Y296161D01*
X432580Y296219D01*
X432644Y296296D01*
X432709Y296401D01*
X432779Y296524D01*
X432837Y296676D01*
X432884Y296846D01*
X433393Y296717D01*
Y296711D01*
X433387Y296688D01*
X433376Y296658D01*
X433364Y296611D01*
X433340Y296565D01*
X433317Y296500D01*
X433293Y296436D01*
X433258Y296366D01*
X433182Y296208D01*
X433077Y296050D01*
X432960Y295898D01*
X432890Y295828D01*
X432814Y295763D01*
X432808Y295757D01*
X432796Y295752D01*
X432773Y295734D01*
X432738Y295711D01*
X432697Y295687D01*
X432650Y295658D01*
X432597Y295629D01*
X432533Y295599D01*
X432463Y295570D01*
X432387Y295541D01*
X432299Y295512D01*
X432211Y295488D01*
X432018Y295447D01*
X431913Y295442D01*
X431802Y295436D01*
X431743D01*
X431697Y295442D01*
X431644D01*
X431585Y295447D01*
X431515Y295459D01*
X431445Y295465D01*
X431281Y295500D01*
X431111Y295541D01*
X430948Y295605D01*
X430866Y295640D01*
X430790Y295687D01*
X430784Y295693D01*
X430772Y295699D01*
X430755Y295716D01*
X430725Y295734D01*
X430655Y295793D01*
X430573Y295874D01*
X430474Y295974D01*
X430380Y296103D01*
X430281Y296249D01*
X430199Y296418D01*
Y296424D01*
X430193Y296442D01*
X430181Y296465D01*
X430170Y296500D01*
X430152Y296547D01*
X430135Y296600D01*
X430117Y296658D01*
X430099Y296728D01*
X430082Y296799D01*
X430064Y296881D01*
X430029Y297056D01*
X430006Y297243D01*
X430000Y297448D01*
Y297454D01*
Y297477D01*
Y297507D01*
X430006Y297548D01*
Y297600D01*
X430012Y297664D01*
X430018Y297729D01*
X430029Y297805D01*
X430058Y297969D01*
X430094Y298144D01*
X430152Y298326D01*
X430228Y298495D01*
Y298501D01*
X430240Y298513D01*
X430252Y298536D01*
X430269Y298571D01*
X430293Y298606D01*
X430322Y298647D01*
X430398Y298747D01*
X430485Y298858D01*
X430597Y298969D01*
X430731Y299080D01*
X430877Y299174D01*
X430883D01*
X430895Y299185D01*
X430919Y299197D01*
X430954Y299209D01*
X430989Y299226D01*
X431036Y299250D01*
X431094Y299267D01*
X431152Y299291D01*
X431217Y299314D01*
X431287Y299332D01*
X431445Y299373D01*
X431620Y299396D01*
X431808Y299408D01*
X431866D01*
X431907Y299402D01*
D02*
G37*
G36*
X435189Y299355D02*
X435236Y299349D01*
X435288Y299343D01*
X435347Y299338D01*
X435411Y299320D01*
X435552Y299285D01*
X435698Y299232D01*
X435774Y299197D01*
X435844Y299156D01*
X435909Y299104D01*
X435973Y299051D01*
X435979Y299045D01*
X435985Y299039D01*
X436002Y299022D01*
X436025Y298998D01*
X436049Y298963D01*
X436078Y298928D01*
X436137Y298840D01*
X436195Y298729D01*
X436248Y298601D01*
X436289Y298454D01*
X436295Y298372D01*
X436301Y298290D01*
Y298279D01*
Y298250D01*
X436295Y298203D01*
X436289Y298144D01*
X436277Y298074D01*
X436260Y297998D01*
X436236Y297916D01*
X436201Y297834D01*
X436195Y297822D01*
X436183Y297793D01*
X436160Y297752D01*
X436125Y297694D01*
X436084Y297623D01*
X436031Y297542D01*
X435961Y297460D01*
X435885Y297366D01*
X435873Y297354D01*
X435844Y297319D01*
X435791Y297267D01*
X435756Y297232D01*
X435715Y297191D01*
X435669Y297144D01*
X435610Y297091D01*
X435552Y297039D01*
X435487Y296974D01*
X435417Y296910D01*
X435335Y296840D01*
X435253Y296769D01*
X435160Y296688D01*
X435154Y296682D01*
X435142Y296670D01*
X435119Y296652D01*
X435089Y296629D01*
X435019Y296571D01*
X434932Y296495D01*
X434844Y296413D01*
X434750Y296331D01*
X434674Y296260D01*
X434645Y296231D01*
X434616Y296202D01*
X434610Y296196D01*
X434598Y296179D01*
X434575Y296155D01*
X434545Y296120D01*
X434481Y296044D01*
X434417Y295951D01*
X436306D01*
Y295500D01*
X433762D01*
Y295506D01*
Y295529D01*
Y295564D01*
X433767Y295605D01*
X433773Y295652D01*
X433779Y295705D01*
X433797Y295763D01*
X433814Y295822D01*
Y295828D01*
X433820Y295833D01*
X433832Y295869D01*
X433855Y295915D01*
X433890Y295986D01*
X433931Y296062D01*
X433990Y296149D01*
X434048Y296237D01*
X434124Y296331D01*
Y296337D01*
X434136Y296342D01*
X434165Y296377D01*
X434212Y296430D01*
X434282Y296500D01*
X434370Y296582D01*
X434475Y296682D01*
X434604Y296793D01*
X434744Y296916D01*
X434750Y296921D01*
X434774Y296939D01*
X434803Y296962D01*
X434844Y297004D01*
X434897Y297044D01*
X434955Y297097D01*
X435084Y297208D01*
X435224Y297343D01*
X435364Y297477D01*
X435435Y297542D01*
X435493Y297606D01*
X435546Y297670D01*
X435593Y297729D01*
Y297735D01*
X435604Y297741D01*
X435616Y297758D01*
X435628Y297781D01*
X435663Y297840D01*
X435704Y297916D01*
X435745Y298004D01*
X435780Y298097D01*
X435803Y298203D01*
X435815Y298302D01*
Y298308D01*
Y298314D01*
X435809Y298349D01*
X435803Y298402D01*
X435791Y298466D01*
X435762Y298542D01*
X435727Y298618D01*
X435680Y298700D01*
X435610Y298776D01*
X435598Y298782D01*
X435575Y298805D01*
X435528Y298834D01*
X435470Y298875D01*
X435394Y298911D01*
X435306Y298940D01*
X435201Y298963D01*
X435084Y298969D01*
X435048D01*
X435025Y298963D01*
X434967Y298957D01*
X434891Y298946D01*
X434803Y298916D01*
X434709Y298881D01*
X434621Y298829D01*
X434540Y298758D01*
X434534Y298747D01*
X434510Y298723D01*
X434475Y298676D01*
X434440Y298612D01*
X434399Y298530D01*
X434370Y298437D01*
X434347Y298326D01*
X434335Y298197D01*
X433849Y298250D01*
Y298255D01*
Y298273D01*
X433855Y298302D01*
X433861Y298337D01*
X433873Y298384D01*
X433879Y298437D01*
X433914Y298554D01*
X433960Y298688D01*
X434025Y298823D01*
X434113Y298957D01*
X434159Y299016D01*
X434218Y299074D01*
X434224Y299080D01*
X434235Y299086D01*
X434253Y299104D01*
X434276Y299121D01*
X434311Y299139D01*
X434352Y299168D01*
X434399Y299191D01*
X434452Y299221D01*
X434510Y299244D01*
X434575Y299273D01*
X434651Y299297D01*
X434727Y299314D01*
X434902Y299349D01*
X434996Y299355D01*
X435095Y299361D01*
X435148D01*
X435189Y299355D01*
D02*
G37*
G36*
X395407Y299402D02*
X395454Y299396D01*
X395512Y299390D01*
X395577Y299384D01*
X395647Y299373D01*
X395799Y299338D01*
X395963Y299285D01*
X396045Y299250D01*
X396127Y299209D01*
X396203Y299162D01*
X396279Y299110D01*
X396285Y299104D01*
X396296Y299098D01*
X396314Y299080D01*
X396343Y299057D01*
X396372Y299028D01*
X396413Y298987D01*
X396454Y298946D01*
X396495Y298899D01*
X396542Y298840D01*
X396583Y298782D01*
X396630Y298712D01*
X396676Y298636D01*
X396718Y298559D01*
X396758Y298472D01*
X396829Y298285D01*
X396326Y298168D01*
Y298173D01*
X396320Y298185D01*
X396314Y298209D01*
X396302Y298238D01*
X396285Y298273D01*
X396267Y298314D01*
X396226Y298402D01*
X396174Y298501D01*
X396103Y298606D01*
X396027Y298700D01*
X395934Y298782D01*
X395922Y298788D01*
X395887Y298811D01*
X395834Y298840D01*
X395758Y298881D01*
X395670Y298916D01*
X395559Y298946D01*
X395436Y298969D01*
X395296Y298975D01*
X395255D01*
X395226Y298969D01*
X395185D01*
X395144Y298963D01*
X395039Y298946D01*
X394921Y298922D01*
X394799Y298881D01*
X394676Y298829D01*
X394559Y298758D01*
X394553D01*
X394547Y298747D01*
X394512Y298717D01*
X394459Y298671D01*
X394395Y298606D01*
X394331Y298524D01*
X394261Y298431D01*
X394196Y298314D01*
X394144Y298185D01*
Y298179D01*
X394138Y298168D01*
X394132Y298150D01*
X394126Y298121D01*
X394114Y298092D01*
X394108Y298051D01*
X394085Y297957D01*
X394062Y297846D01*
X394044Y297723D01*
X394032Y297588D01*
X394026Y297448D01*
Y297442D01*
Y297425D01*
Y297401D01*
Y297366D01*
X394032Y297325D01*
Y297273D01*
X394038Y297220D01*
X394044Y297161D01*
X394062Y297027D01*
X394085Y296881D01*
X394120Y296734D01*
X394167Y296594D01*
Y296588D01*
X394173Y296576D01*
X394184Y296559D01*
X394196Y296535D01*
X394225Y296465D01*
X394272Y296389D01*
X394337Y296296D01*
X394413Y296208D01*
X394500Y296120D01*
X394606Y296044D01*
X394612D01*
X394617Y296038D01*
X394635Y296026D01*
X394658Y296015D01*
X394723Y295991D01*
X394805Y295956D01*
X394898Y295927D01*
X395009Y295898D01*
X395132Y295874D01*
X395261Y295869D01*
X395302D01*
X395331Y295874D01*
X395366D01*
X395413Y295880D01*
X395512Y295898D01*
X395623Y295927D01*
X395746Y295974D01*
X395863Y296032D01*
X395980Y296114D01*
X395986Y296120D01*
X395992Y296126D01*
X396027Y296161D01*
X396080Y296219D01*
X396144Y296296D01*
X396209Y296401D01*
X396279Y296524D01*
X396337Y296676D01*
X396384Y296846D01*
X396893Y296717D01*
Y296711D01*
X396887Y296688D01*
X396876Y296658D01*
X396864Y296611D01*
X396840Y296565D01*
X396817Y296500D01*
X396794Y296436D01*
X396758Y296366D01*
X396682Y296208D01*
X396577Y296050D01*
X396460Y295898D01*
X396390Y295828D01*
X396314Y295763D01*
X396308Y295757D01*
X396296Y295752D01*
X396273Y295734D01*
X396238Y295711D01*
X396197Y295687D01*
X396150Y295658D01*
X396097Y295629D01*
X396033Y295599D01*
X395963Y295570D01*
X395887Y295541D01*
X395799Y295512D01*
X395711Y295488D01*
X395518Y295447D01*
X395413Y295442D01*
X395302Y295436D01*
X395243D01*
X395197Y295442D01*
X395144D01*
X395085Y295447D01*
X395015Y295459D01*
X394945Y295465D01*
X394781Y295500D01*
X394612Y295541D01*
X394448Y295605D01*
X394366Y295640D01*
X394290Y295687D01*
X394284Y295693D01*
X394272Y295699D01*
X394255Y295716D01*
X394225Y295734D01*
X394155Y295793D01*
X394073Y295874D01*
X393974Y295974D01*
X393880Y296103D01*
X393781Y296249D01*
X393699Y296418D01*
Y296424D01*
X393693Y296442D01*
X393681Y296465D01*
X393670Y296500D01*
X393652Y296547D01*
X393635Y296600D01*
X393617Y296658D01*
X393599Y296728D01*
X393582Y296799D01*
X393564Y296881D01*
X393529Y297056D01*
X393506Y297243D01*
X393500Y297448D01*
Y297454D01*
Y297477D01*
Y297507D01*
X393506Y297548D01*
Y297600D01*
X393512Y297664D01*
X393517Y297729D01*
X393529Y297805D01*
X393559Y297969D01*
X393594Y298144D01*
X393652Y298326D01*
X393728Y298495D01*
Y298501D01*
X393740Y298513D01*
X393752Y298536D01*
X393769Y298571D01*
X393793Y298606D01*
X393822Y298647D01*
X393898Y298747D01*
X393986Y298858D01*
X394097Y298969D01*
X394231Y299080D01*
X394377Y299174D01*
X394383D01*
X394395Y299185D01*
X394418Y299197D01*
X394454Y299209D01*
X394489Y299226D01*
X394535Y299250D01*
X394594Y299267D01*
X394652Y299291D01*
X394717Y299314D01*
X394787Y299332D01*
X394945Y299373D01*
X395120Y299396D01*
X395308Y299408D01*
X395366D01*
X395407Y299402D01*
D02*
G37*
G36*
X399104Y295500D02*
X398630D01*
Y298507D01*
X398625Y298501D01*
X398601Y298478D01*
X398560Y298448D01*
X398508Y298408D01*
X398443Y298355D01*
X398367Y298302D01*
X398279Y298238D01*
X398180Y298179D01*
X398174D01*
X398168Y298173D01*
X398133Y298150D01*
X398080Y298121D01*
X398016Y298086D01*
X397940Y298045D01*
X397858Y298010D01*
X397771Y297969D01*
X397689Y297934D01*
Y298396D01*
X397694D01*
X397706Y298402D01*
X397730Y298413D01*
X397753Y298431D01*
X397788Y298448D01*
X397829Y298466D01*
X397923Y298519D01*
X398028Y298583D01*
X398145Y298659D01*
X398262Y298747D01*
X398373Y298840D01*
X398379Y298846D01*
X398385Y298852D01*
X398420Y298887D01*
X398472Y298940D01*
X398537Y299004D01*
X398607Y299086D01*
X398677Y299174D01*
X398742Y299267D01*
X398794Y299361D01*
X399104D01*
Y295500D01*
D02*
G37*
G36*
X390092Y288000D02*
X389618D01*
Y291007D01*
X389613Y291001D01*
X389589Y290978D01*
X389548Y290948D01*
X389496Y290908D01*
X389431Y290855D01*
X389355Y290802D01*
X389267Y290738D01*
X389168Y290679D01*
X389162D01*
X389156Y290673D01*
X389121Y290650D01*
X389069Y290621D01*
X389004Y290586D01*
X388928Y290545D01*
X388846Y290510D01*
X388758Y290469D01*
X388677Y290434D01*
Y290896D01*
X388682D01*
X388694Y290902D01*
X388718Y290913D01*
X388741Y290931D01*
X388776Y290948D01*
X388817Y290966D01*
X388911Y291019D01*
X389016Y291083D01*
X389133Y291159D01*
X389250Y291247D01*
X389361Y291340D01*
X389367Y291346D01*
X389373Y291352D01*
X389408Y291387D01*
X389460Y291440D01*
X389525Y291504D01*
X389595Y291586D01*
X389665Y291674D01*
X389730Y291767D01*
X389782Y291861D01*
X390092D01*
Y288000D01*
D02*
G37*
G36*
X386009Y288451D02*
X387898D01*
Y288000D01*
X385500D01*
Y291843D01*
X386009D01*
Y288451D01*
D02*
G37*
G36*
X432952Y262436D02*
X432478D01*
Y265442D01*
X432473Y265437D01*
X432449Y265413D01*
X432408Y265384D01*
X432355Y265343D01*
X432291Y265290D01*
X432215Y265238D01*
X432127Y265174D01*
X432028Y265115D01*
X432022D01*
X432016Y265109D01*
X431981Y265086D01*
X431928Y265056D01*
X431864Y265021D01*
X431788Y264980D01*
X431706Y264945D01*
X431618Y264904D01*
X431536Y264869D01*
Y265331D01*
X431542D01*
X431554Y265337D01*
X431577Y265349D01*
X431601Y265367D01*
X431636Y265384D01*
X431677Y265402D01*
X431771Y265454D01*
X431876Y265519D01*
X431993Y265595D01*
X432110Y265682D01*
X432221Y265776D01*
X432227Y265782D01*
X432233Y265788D01*
X432268Y265823D01*
X432320Y265876D01*
X432385Y265940D01*
X432455Y266022D01*
X432525Y266109D01*
X432589Y266203D01*
X432642Y266297D01*
X432952D01*
Y262436D01*
D02*
G37*
G36*
X429331Y266273D02*
X429378D01*
X429495Y266267D01*
X429618Y266256D01*
X429746Y266232D01*
X429869Y266209D01*
X429928Y266191D01*
X429980Y266174D01*
X429986D01*
X429992Y266168D01*
X430027Y266156D01*
X430074Y266127D01*
X430132Y266086D01*
X430203Y266039D01*
X430273Y265975D01*
X430343Y265899D01*
X430407Y265805D01*
X430413Y265794D01*
X430431Y265758D01*
X430460Y265706D01*
X430489Y265636D01*
X430519Y265548D01*
X430548Y265448D01*
X430565Y265343D01*
X430571Y265226D01*
Y265220D01*
Y265209D01*
Y265185D01*
X430565Y265156D01*
Y265121D01*
X430560Y265080D01*
X430536Y264986D01*
X430507Y264875D01*
X430460Y264764D01*
X430390Y264647D01*
X430349Y264588D01*
X430302Y264536D01*
X430290Y264524D01*
X430273Y264512D01*
X430255Y264489D01*
X430226Y264472D01*
X430191Y264442D01*
X430150Y264419D01*
X430103Y264390D01*
X430051Y264360D01*
X429986Y264331D01*
X429922Y264302D01*
X429846Y264273D01*
X429770Y264243D01*
X429682Y264220D01*
X429589Y264202D01*
X429489Y264185D01*
X429501Y264179D01*
X429524Y264167D01*
X429559Y264150D01*
X429600Y264126D01*
X429700Y264062D01*
X429752Y264027D01*
X429793Y263992D01*
X429805Y263980D01*
X429834Y263957D01*
X429875Y263910D01*
X429928Y263851D01*
X429992Y263775D01*
X430062Y263688D01*
X430138Y263588D01*
X430214Y263477D01*
X430881Y262436D01*
X430244D01*
X429735Y263231D01*
Y263237D01*
X429723Y263249D01*
X429711Y263266D01*
X429700Y263290D01*
X429659Y263348D01*
X429606Y263424D01*
X429548Y263512D01*
X429483Y263600D01*
X429425Y263682D01*
X429366Y263758D01*
X429360Y263764D01*
X429343Y263787D01*
X429314Y263822D01*
X429284Y263863D01*
X429197Y263945D01*
X429156Y263986D01*
X429109Y264015D01*
X429103Y264021D01*
X429091Y264027D01*
X429068Y264038D01*
X429039Y264056D01*
X428968Y264091D01*
X428881Y264120D01*
X428875D01*
X428863Y264126D01*
X428840D01*
X428810Y264132D01*
X428769Y264138D01*
X428723D01*
X428664Y264144D01*
X428009D01*
Y262436D01*
X427500D01*
Y266279D01*
X429284D01*
X429331Y266273D01*
D02*
G37*
G36*
X390907Y266402D02*
X390954Y266396D01*
X391012Y266390D01*
X391077Y266384D01*
X391147Y266373D01*
X391299Y266338D01*
X391463Y266285D01*
X391545Y266250D01*
X391627Y266209D01*
X391703Y266162D01*
X391779Y266109D01*
X391785Y266104D01*
X391796Y266098D01*
X391814Y266080D01*
X391843Y266057D01*
X391872Y266028D01*
X391913Y265987D01*
X391954Y265946D01*
X391995Y265899D01*
X392042Y265840D01*
X392083Y265782D01*
X392130Y265712D01*
X392177Y265636D01*
X392217Y265560D01*
X392258Y265472D01*
X392329Y265285D01*
X391826Y265168D01*
Y265174D01*
X391820Y265185D01*
X391814Y265209D01*
X391802Y265238D01*
X391785Y265273D01*
X391767Y265314D01*
X391726Y265402D01*
X391673Y265501D01*
X391603Y265606D01*
X391527Y265700D01*
X391434Y265782D01*
X391422Y265788D01*
X391387Y265811D01*
X391334Y265840D01*
X391258Y265881D01*
X391170Y265916D01*
X391059Y265946D01*
X390936Y265969D01*
X390796Y265975D01*
X390755D01*
X390726Y265969D01*
X390685D01*
X390644Y265963D01*
X390539Y265946D01*
X390422Y265922D01*
X390299Y265881D01*
X390176Y265829D01*
X390059Y265758D01*
X390053D01*
X390047Y265747D01*
X390012Y265718D01*
X389959Y265671D01*
X389895Y265606D01*
X389831Y265524D01*
X389760Y265431D01*
X389696Y265314D01*
X389644Y265185D01*
Y265179D01*
X389638Y265168D01*
X389632Y265150D01*
X389626Y265121D01*
X389614Y265092D01*
X389608Y265051D01*
X389585Y264957D01*
X389562Y264846D01*
X389544Y264723D01*
X389532Y264588D01*
X389527Y264448D01*
Y264442D01*
Y264425D01*
Y264401D01*
Y264366D01*
X389532Y264325D01*
Y264273D01*
X389538Y264220D01*
X389544Y264161D01*
X389562Y264027D01*
X389585Y263881D01*
X389620Y263734D01*
X389667Y263594D01*
Y263588D01*
X389673Y263576D01*
X389685Y263559D01*
X389696Y263535D01*
X389725Y263465D01*
X389772Y263389D01*
X389837Y263296D01*
X389913Y263208D01*
X390000Y263120D01*
X390106Y263044D01*
X390111D01*
X390117Y263038D01*
X390135Y263026D01*
X390158Y263015D01*
X390223Y262991D01*
X390305Y262956D01*
X390398Y262927D01*
X390509Y262898D01*
X390632Y262874D01*
X390761Y262869D01*
X390802D01*
X390831Y262874D01*
X390866D01*
X390913Y262880D01*
X391012Y262898D01*
X391124Y262927D01*
X391246Y262974D01*
X391363Y263032D01*
X391480Y263114D01*
X391486Y263120D01*
X391492Y263126D01*
X391527Y263161D01*
X391580Y263219D01*
X391644Y263296D01*
X391709Y263401D01*
X391779Y263524D01*
X391837Y263676D01*
X391884Y263845D01*
X392393Y263717D01*
Y263711D01*
X392387Y263688D01*
X392375Y263658D01*
X392364Y263612D01*
X392340Y263565D01*
X392317Y263500D01*
X392294Y263436D01*
X392258Y263366D01*
X392182Y263208D01*
X392077Y263050D01*
X391960Y262898D01*
X391890Y262828D01*
X391814Y262763D01*
X391808Y262757D01*
X391796Y262752D01*
X391773Y262734D01*
X391738Y262711D01*
X391697Y262687D01*
X391650Y262658D01*
X391597Y262629D01*
X391533Y262599D01*
X391463Y262570D01*
X391387Y262541D01*
X391299Y262512D01*
X391211Y262488D01*
X391018Y262447D01*
X390913Y262441D01*
X390802Y262436D01*
X390743D01*
X390697Y262441D01*
X390644D01*
X390585Y262447D01*
X390515Y262459D01*
X390445Y262465D01*
X390281Y262500D01*
X390111Y262541D01*
X389948Y262605D01*
X389866Y262640D01*
X389790Y262687D01*
X389784Y262693D01*
X389772Y262699D01*
X389755Y262716D01*
X389725Y262734D01*
X389655Y262792D01*
X389573Y262874D01*
X389474Y262974D01*
X389380Y263103D01*
X389281Y263249D01*
X389199Y263418D01*
Y263424D01*
X389193Y263442D01*
X389181Y263465D01*
X389170Y263500D01*
X389152Y263547D01*
X389135Y263600D01*
X389117Y263658D01*
X389099Y263728D01*
X389082Y263799D01*
X389064Y263881D01*
X389029Y264056D01*
X389006Y264243D01*
X389000Y264448D01*
Y264454D01*
Y264477D01*
Y264507D01*
X389006Y264547D01*
Y264600D01*
X389012Y264665D01*
X389018Y264729D01*
X389029Y264805D01*
X389058Y264969D01*
X389094Y265144D01*
X389152Y265326D01*
X389228Y265495D01*
Y265501D01*
X389240Y265513D01*
X389251Y265536D01*
X389269Y265571D01*
X389293Y265606D01*
X389322Y265647D01*
X389398Y265747D01*
X389486Y265858D01*
X389597Y265969D01*
X389731Y266080D01*
X389878Y266174D01*
X389883D01*
X389895Y266185D01*
X389918Y266197D01*
X389953Y266209D01*
X389989Y266227D01*
X390035Y266250D01*
X390094Y266267D01*
X390152Y266291D01*
X390217Y266314D01*
X390287Y266332D01*
X390445Y266373D01*
X390620Y266396D01*
X390808Y266408D01*
X390866D01*
X390907Y266402D01*
D02*
G37*
G36*
X394142Y266355D02*
X394218Y266343D01*
X394306Y266326D01*
X394405Y266302D01*
X394505Y266267D01*
X394604Y266221D01*
X394610D01*
X394616Y266215D01*
X394651Y266197D01*
X394698Y266168D01*
X394756Y266127D01*
X394821Y266074D01*
X394891Y266010D01*
X394955Y265934D01*
X395014Y265852D01*
X395020Y265840D01*
X395037Y265811D01*
X395061Y265764D01*
X395084Y265706D01*
X395107Y265630D01*
X395131Y265548D01*
X395148Y265460D01*
X395154Y265361D01*
Y265349D01*
Y265320D01*
X395148Y265273D01*
X395137Y265214D01*
X395119Y265144D01*
X395096Y265068D01*
X395066Y264986D01*
X395020Y264910D01*
X395014Y264898D01*
X394996Y264875D01*
X394961Y264840D01*
X394920Y264793D01*
X394862Y264740D01*
X394797Y264688D01*
X394715Y264629D01*
X394622Y264583D01*
X394628D01*
X394639Y264577D01*
X394657D01*
X394680Y264565D01*
X394739Y264547D01*
X394815Y264512D01*
X394897Y264472D01*
X394985Y264413D01*
X395072Y264343D01*
X395148Y264255D01*
X395154Y264243D01*
X395178Y264208D01*
X395207Y264156D01*
X395248Y264085D01*
X395283Y263998D01*
X395312Y263892D01*
X395336Y263770D01*
X395341Y263635D01*
Y263629D01*
Y263612D01*
Y263588D01*
X395336Y263553D01*
X395330Y263506D01*
X395324Y263459D01*
X395312Y263401D01*
X395295Y263342D01*
X395254Y263208D01*
X395224Y263132D01*
X395183Y263062D01*
X395143Y262991D01*
X395096Y262921D01*
X395037Y262851D01*
X394973Y262781D01*
X394967Y262775D01*
X394955Y262763D01*
X394938Y262752D01*
X394908Y262728D01*
X394873Y262699D01*
X394827Y262670D01*
X394774Y262640D01*
X394721Y262611D01*
X394657Y262576D01*
X394587Y262547D01*
X394511Y262517D01*
X394429Y262488D01*
X394341Y262465D01*
X394247Y262453D01*
X394148Y262441D01*
X394049Y262436D01*
X394002D01*
X393967Y262441D01*
X393920Y262447D01*
X393873Y262453D01*
X393815Y262459D01*
X393756Y262471D01*
X393621Y262506D01*
X393481Y262564D01*
X393411Y262594D01*
X393347Y262634D01*
X393276Y262681D01*
X393212Y262734D01*
X393206Y262740D01*
X393200Y262746D01*
X393183Y262763D01*
X393159Y262787D01*
X393136Y262822D01*
X393107Y262857D01*
X393072Y262898D01*
X393042Y262945D01*
X392972Y263062D01*
X392914Y263196D01*
X392861Y263348D01*
X392843Y263430D01*
X392832Y263518D01*
X393306Y263582D01*
Y263576D01*
X393312Y263565D01*
Y263541D01*
X393323Y263518D01*
X393341Y263448D01*
X393370Y263360D01*
X393405Y263266D01*
X393452Y263167D01*
X393510Y263079D01*
X393575Y263003D01*
X393586Y262997D01*
X393610Y262974D01*
X393651Y262950D01*
X393709Y262915D01*
X393774Y262886D01*
X393856Y262857D01*
X393949Y262833D01*
X394049Y262828D01*
X394084D01*
X394107Y262833D01*
X394165Y262839D01*
X394242Y262857D01*
X394335Y262886D01*
X394429Y262921D01*
X394522Y262980D01*
X394610Y263056D01*
X394622Y263068D01*
X394645Y263097D01*
X394680Y263143D01*
X394727Y263214D01*
X394768Y263296D01*
X394803Y263395D01*
X394827Y263506D01*
X394838Y263629D01*
Y263635D01*
Y263641D01*
Y263658D01*
X394832Y263682D01*
X394827Y263740D01*
X394809Y263816D01*
X394786Y263898D01*
X394745Y263992D01*
X394692Y264079D01*
X394622Y264161D01*
X394610Y264173D01*
X394587Y264196D01*
X394540Y264226D01*
X394476Y264267D01*
X394399Y264308D01*
X394306Y264337D01*
X394207Y264360D01*
X394090Y264372D01*
X394037D01*
X393996Y264366D01*
X393949Y264360D01*
X393891Y264354D01*
X393826Y264343D01*
X393756Y264325D01*
X393809Y264740D01*
X393838D01*
X393861Y264735D01*
X393937D01*
X393990Y264740D01*
X394066Y264752D01*
X394148Y264770D01*
X394236Y264799D01*
X394329Y264834D01*
X394423Y264887D01*
X394435Y264893D01*
X394464Y264916D01*
X394499Y264957D01*
X394546Y265010D01*
X394593Y265074D01*
X394628Y265156D01*
X394657Y265255D01*
X394669Y265372D01*
Y265378D01*
Y265384D01*
Y265413D01*
X394657Y265460D01*
X394645Y265524D01*
X394628Y265589D01*
X394593Y265659D01*
X394552Y265735D01*
X394493Y265799D01*
X394487Y265805D01*
X394464Y265829D01*
X394423Y265858D01*
X394370Y265887D01*
X394306Y265922D01*
X394230Y265946D01*
X394142Y265969D01*
X394043Y265975D01*
X393996D01*
X393943Y265963D01*
X393885Y265951D01*
X393809Y265934D01*
X393733Y265899D01*
X393657Y265858D01*
X393581Y265799D01*
X393575Y265794D01*
X393551Y265770D01*
X393522Y265729D01*
X393487Y265671D01*
X393446Y265600D01*
X393411Y265513D01*
X393376Y265407D01*
X393352Y265285D01*
X392879Y265367D01*
Y265372D01*
X392884Y265390D01*
X392890Y265413D01*
X392896Y265442D01*
X392908Y265483D01*
X392919Y265530D01*
X392960Y265636D01*
X393007Y265753D01*
X393077Y265876D01*
X393159Y265992D01*
X393265Y266098D01*
X393270Y266104D01*
X393276Y266109D01*
X393294Y266121D01*
X393323Y266139D01*
X393352Y266156D01*
X393388Y266180D01*
X393475Y266232D01*
X393586Y266279D01*
X393721Y266320D01*
X393867Y266349D01*
X393949Y266361D01*
X394084D01*
X394142Y266355D01*
D02*
G37*
%LPC*%
G36*
X439335Y279571D02*
X438130Y277851D01*
X439335D01*
Y279571D01*
D02*
G37*
G36*
X429220Y265852D02*
X428009D01*
Y264583D01*
X429156D01*
X429220Y264588D01*
X429296Y264594D01*
X429384Y264600D01*
X429477Y264612D01*
X429565Y264629D01*
X429641Y264653D01*
X429653Y264659D01*
X429676Y264665D01*
X429711Y264682D01*
X429752Y264705D01*
X429799Y264740D01*
X429852Y264781D01*
X429899Y264828D01*
X429940Y264881D01*
X429945Y264887D01*
X429957Y264910D01*
X429975Y264939D01*
X429992Y264986D01*
X430010Y265033D01*
X430027Y265092D01*
X430039Y265156D01*
X430045Y265226D01*
Y265232D01*
Y265238D01*
Y265273D01*
X430033Y265320D01*
X430021Y265384D01*
X429998Y265454D01*
X429963Y265530D01*
X429910Y265606D01*
X429846Y265676D01*
X429834Y265682D01*
X429811Y265706D01*
X429758Y265735D01*
X429694Y265764D01*
X429606Y265799D01*
X429501Y265823D01*
X429372Y265846D01*
X429220Y265852D01*
D02*
G37*
%LPD*%
D10*
X407606Y286559D02*
X406868Y286985D01*
Y286133D01*
X407606Y286559D01*
D11*
X426744Y287012D02*
X427925D01*
X426744Y275988D02*
Y287012D01*
Y275988D02*
X427925D01*
X431075D02*
X432256D01*
Y287012D01*
X431075D02*
X432256D01*
X426744Y281500D02*
X432256D01*
X428512Y299075D02*
Y300256D01*
X417488D02*
X428512D01*
X417488Y299075D02*
Y300256D01*
Y294744D02*
Y295925D01*
Y294744D02*
X428512D01*
Y295925D01*
X423000Y294744D02*
Y300256D01*
X400488Y294744D02*
Y295925D01*
Y294744D02*
X411512D01*
Y295925D01*
Y299075D02*
Y300256D01*
X400488D02*
X411512D01*
X400488Y299075D02*
Y300256D01*
X406000Y294744D02*
Y300256D01*
X420941Y261744D02*
Y267256D01*
X415941Y266500D02*
Y267256D01*
X425941D01*
Y266500D02*
Y267256D01*
Y261744D02*
Y262500D01*
X415941Y261744D02*
X425941D01*
X415941D02*
Y262500D01*
X411512Y266075D02*
Y267256D01*
X400488D02*
X411512D01*
X400488Y266075D02*
Y267256D01*
Y261744D02*
Y262925D01*
Y261744D02*
X411512D01*
Y262925D01*
X406000Y261744D02*
Y267256D01*
D12*
X414500Y256500D02*
X447000D01*
Y307000D01*
X382000Y256500D02*
X414500D01*
X382000D02*
Y307000D01*
X414500D01*
X447000D01*
D13*
X399224Y283150D02*
Y285906D01*
Y283150D02*
X400406Y281968D01*
Y280000D02*
Y281968D01*
Y278031D02*
Y280000D01*
X399224Y276850D02*
X400406Y278031D01*
X399224Y274095D02*
Y276850D01*
X388595Y285906D02*
X389776D01*
X388595Y274095D02*
Y285906D01*
Y274095D02*
X389776D01*
D14*
X386531Y302532D02*
D03*
M02*
