G04*
G04 #@! TF.GenerationSoftware,Altium Limited,Altium Designer,20.0.2 (26)*
G04*
G04 Layer_Physical_Order=1*
G04 Layer_Color=255*
%FSLAX25Y25*%
%MOIN*%
G70*
G01*
G75*
%ADD15R,0.03937X0.03543*%
%ADD16R,0.03150X0.01181*%
%ADD17R,0.06890X0.09843*%
%ADD18R,0.03543X0.03937*%
%ADD19R,0.07087X0.04331*%
%ADD20R,0.03347X0.03740*%
%ADD28C,0.01181*%
%ADD29C,0.07874*%
%ADD30R,0.08000X0.09000*%
%ADD31R,0.08000X0.14000*%
%ADD32R,0.04500X0.15500*%
%ADD33R,0.12500X0.05000*%
%ADD34R,0.03000X0.14000*%
%ADD35R,0.13000X0.05000*%
%ADD36R,0.03000X0.17000*%
%ADD37R,0.14500X0.04000*%
%ADD38C,0.02362*%
G36*
X408584Y299222D02*
X408722Y299084D01*
X408902Y299010D01*
X409000Y299000D01*
X421000D01*
Y287401D01*
X420924Y287217D01*
X420783Y287076D01*
X420599Y287000D01*
X419000D01*
Y289500D01*
X418952Y289988D01*
X418579Y290889D01*
X417889Y291579D01*
X416988Y291952D01*
X416500Y292000D01*
X412500D01*
X412012Y291952D01*
X411847Y291884D01*
X411847Y291884D01*
X411111Y291579D01*
X410421Y290889D01*
X410048Y289988D01*
X410006Y289559D01*
Y289559D01*
X410000Y289500D01*
Y289441D01*
X410000Y289441D01*
X410000D01*
Y287000D01*
X407500D01*
Y298699D01*
X407652Y299066D01*
X407934Y299348D01*
X408009Y299379D01*
X408086Y299383D01*
X408584Y299222D01*
D02*
G37*
G36*
X409296Y301704D02*
X407000D01*
X406539Y301613D01*
X406148Y301351D01*
X405887Y300961D01*
X405826Y300650D01*
X405705D01*
Y294350D01*
X405796D01*
Y283838D01*
X405736D01*
X405736Y283838D01*
X404672D01*
X404185Y284039D01*
X403730Y284343D01*
X403343Y284730D01*
X403040Y285185D01*
X402830Y285690D01*
X402718Y286256D01*
X402704Y286530D01*
Y286779D01*
X402704Y286779D01*
X402681Y286896D01*
Y287014D01*
X402636Y287242D01*
X402590Y287352D01*
X402567Y287468D01*
X402353Y287984D01*
X402288Y288083D01*
X402242Y288192D01*
X402113Y288386D01*
X402029Y288470D01*
X401963Y288568D01*
X401568Y288963D01*
X401470Y289029D01*
X401386Y289113D01*
X401192Y289242D01*
X401083Y289288D01*
X400984Y289353D01*
X400468Y289567D01*
X400352Y289590D01*
X400242Y289636D01*
X400014Y289681D01*
X399896D01*
X399779Y289704D01*
X388820D01*
X388704Y289681D01*
X388585D01*
X388357Y289636D01*
X388247Y289590D01*
X388131Y289567D01*
X387799Y289430D01*
X387700Y289364D01*
X387591Y289318D01*
X387397Y289189D01*
X387314Y289105D01*
X387215Y289039D01*
X386961Y288785D01*
X386895Y288686D01*
X386811Y288603D01*
X386682Y288409D01*
X386636Y288300D01*
X386570Y288201D01*
X386433Y287869D01*
X386410Y287752D01*
X386364Y287643D01*
X386319Y287415D01*
X386319Y287296D01*
X386296Y287180D01*
Y282420D01*
X386319Y282303D01*
Y282185D01*
X386364Y281957D01*
X386410Y281847D01*
X386433Y281731D01*
X386494Y281582D01*
X386560Y281484D01*
X386606Y281374D01*
X386735Y281181D01*
X386819Y281097D01*
X386885Y280998D01*
X386998Y280885D01*
X387097Y280819D01*
X387181Y280735D01*
X387374Y280606D01*
X387484Y280560D01*
X387582Y280494D01*
X387731Y280433D01*
X387821Y280415D01*
X387914Y280382D01*
X387957Y280364D01*
X388187Y279867D01*
X388188Y279819D01*
X388185Y279807D01*
X387957Y279762D01*
X387847Y279716D01*
X387731Y279693D01*
X387582Y279632D01*
X387484Y279566D01*
X387374Y279520D01*
X387181Y279391D01*
X387119Y279330D01*
X387104Y279323D01*
X387075Y279293D01*
X386998Y279241D01*
X386949Y279192D01*
X386883Y279094D01*
X386848Y279059D01*
X386844Y279048D01*
X386781Y278981D01*
X386526Y278575D01*
X386510Y278535D01*
X386483Y278502D01*
X386427Y278317D01*
X386358Y278136D01*
X386359Y278093D01*
X386347Y278052D01*
X386301Y277590D01*
X386307Y277531D01*
X386296Y277472D01*
Y272946D01*
X386319Y272830D01*
Y272711D01*
X386364Y272483D01*
X386410Y272374D01*
X386433Y272257D01*
X386570Y271925D01*
X386636Y271826D01*
X386682Y271717D01*
X386811Y271523D01*
X386895Y271440D01*
X386961Y271341D01*
X387215Y271087D01*
X387314Y271021D01*
X387397Y270937D01*
X387591Y270808D01*
X387700Y270762D01*
X387799Y270696D01*
X388131Y270559D01*
X388248Y270536D01*
X388357Y270490D01*
X388585Y270445D01*
X388704Y270445D01*
X388820Y270422D01*
X399779D01*
X399896Y270445D01*
X400014D01*
X400242Y270490D01*
X400352Y270536D01*
X400468Y270559D01*
X400984Y270773D01*
X401083Y270838D01*
X401192Y270884D01*
X401386Y271013D01*
X401470Y271097D01*
X401568Y271163D01*
X401963Y271558D01*
X402029Y271656D01*
X402113Y271740D01*
X402242Y271934D01*
X402288Y272043D01*
X402353Y272142D01*
X402567Y272658D01*
X402590Y272774D01*
X402636Y272884D01*
X402681Y273112D01*
Y273230D01*
X402704Y273347D01*
Y273596D01*
X402704Y273596D01*
X402704Y273597D01*
X402718Y273870D01*
X402830Y274436D01*
X403040Y274941D01*
X403343Y275396D01*
X403730Y275783D01*
X404185Y276086D01*
X404672Y276288D01*
X405293D01*
X405785Y275811D01*
X405787Y275788D01*
X405700Y268777D01*
X405622Y262486D01*
X405645Y262365D01*
X405644Y262243D01*
X405664Y262136D01*
X405699Y262051D01*
X405705Y262013D01*
Y261350D01*
X406013D01*
X406148Y261149D01*
X406539Y260887D01*
X407000Y260796D01*
X407187D01*
X407187Y260796D01*
X409296D01*
Y256500D01*
X382000D01*
Y307000D01*
X409296D01*
Y301704D01*
D02*
G37*
G36*
X399891Y288478D02*
X399891Y288478D01*
X400007Y288455D01*
X400117Y288409D01*
X400117Y288409D01*
X400523Y288241D01*
X400523Y288241D01*
X400717Y288112D01*
X401112Y287717D01*
X401241Y287523D01*
X401455Y287007D01*
X401500Y286779D01*
X401500Y286779D01*
X401500D01*
Y286500D01*
X401519Y286108D01*
X401537Y286021D01*
Y286021D01*
X401672Y285339D01*
X401972Y284614D01*
X402408Y283962D01*
X402962Y283408D01*
X403061Y283342D01*
X403061Y283342D01*
X403614Y282972D01*
X404339Y282672D01*
X405108Y282519D01*
X405500Y282500D01*
X405546D01*
X405694Y282396D01*
X405781Y281789D01*
X405572Y281500D01*
X388347D01*
X388343Y281501D01*
X388316Y281517D01*
X388222Y281550D01*
X388157Y281560D01*
X388043Y281607D01*
X387850Y281736D01*
X387736Y281850D01*
X387670Y281948D01*
X387670Y281948D01*
X387607Y282043D01*
X387607Y282043D01*
X387545Y282191D01*
X387500Y282420D01*
Y287180D01*
X387545Y287408D01*
X387683Y287740D01*
X387746Y287835D01*
X387746Y287835D01*
X387812Y287934D01*
X387896Y288017D01*
X387896Y288017D01*
X388067Y288188D01*
X388260Y288317D01*
X388592Y288455D01*
X388820Y288500D01*
X399779D01*
X399891Y288478D01*
D02*
G37*
G36*
X405572Y278626D02*
X405933Y278291D01*
Y278126D01*
X405546Y277626D01*
X405500D01*
X405108Y277607D01*
X404339Y277454D01*
X403614Y277154D01*
X402962Y276718D01*
X402408Y276164D01*
X402342Y276065D01*
X402342Y276065D01*
X401972Y275512D01*
X401672Y274787D01*
X401519Y274018D01*
X401500Y273626D01*
Y273596D01*
X401500Y273596D01*
X401500D01*
Y273347D01*
X401478Y273235D01*
X401478Y273235D01*
X401455Y273119D01*
X401409Y273009D01*
X401409Y273009D01*
X401241Y272603D01*
X401241Y272603D01*
X401112Y272409D01*
X400717Y272014D01*
X400618Y271948D01*
X400618Y271948D01*
X400523Y271885D01*
X400007Y271671D01*
X399891Y271648D01*
X399891Y271648D01*
X399779Y271626D01*
X388820D01*
X388592Y271671D01*
X388260Y271809D01*
X388165Y271872D01*
X388165Y271872D01*
X388066Y271938D01*
X387983Y272022D01*
X387983Y272022D01*
X387812Y272193D01*
X387683Y272386D01*
X387545Y272718D01*
X387500Y272946D01*
Y277472D01*
X387537Y277847D01*
X387552Y277887D01*
X387559Y277930D01*
X387580Y277967D01*
X387801Y278341D01*
X388211Y278584D01*
X388308Y278604D01*
X388308Y278604D01*
X388420Y278626D01*
X405572D01*
D02*
G37*
G36*
X416692Y290771D02*
X417207Y290558D01*
X417558Y290207D01*
X417771Y289692D01*
X417796Y289441D01*
X417796Y289441D01*
Y285772D01*
X417744D01*
Y282228D01*
X417744D01*
Y281835D01*
X417744D01*
Y278291D01*
Y274354D01*
X418706D01*
X419000Y274296D01*
X420296D01*
Y268447D01*
X420000Y268204D01*
X417286D01*
X416406Y268399D01*
X416203Y268703D01*
X415422Y269225D01*
X414500Y269408D01*
X414362Y269381D01*
X413669Y269867D01*
X412663Y270918D01*
X411881Y272144D01*
X411342Y273528D01*
X411268Y273854D01*
X411445Y274354D01*
X411445D01*
Y276323D01*
Y279866D01*
X411445D01*
Y280260D01*
X411445D01*
Y282228D01*
Y285772D01*
X411204D01*
Y289441D01*
X411204Y289441D01*
X411204Y289441D01*
X411229Y289692D01*
X411442Y290207D01*
X411793Y290558D01*
X412308Y290771D01*
X412559Y290796D01*
X416441D01*
X416692Y290771D01*
D02*
G37*
G36*
X408133Y276196D02*
X408696Y275633D01*
X409000Y274898D01*
X409000Y274500D01*
X409615Y274500D01*
X409969Y274146D01*
Y273961D01*
X410009D01*
X410188Y273174D01*
X410801Y271597D01*
X410865Y271497D01*
X410865Y271497D01*
X411647Y270270D01*
X411647Y270270D01*
X411711Y270170D01*
X412881Y268948D01*
X414267Y267978D01*
X415816Y267297D01*
X417468Y266931D01*
X419160Y266894D01*
X419625Y266953D01*
X420000Y266622D01*
X420000Y262451D01*
X419901Y262300D01*
X419517Y262000D01*
X407331Y262000D01*
X407109Y262097D01*
X406849Y262358D01*
X406827Y262471D01*
X406828Y262586D01*
X406828Y262589D01*
X406864Y265533D01*
X406914Y269579D01*
X406991Y275773D01*
X406991Y275773D01*
X406997Y276288D01*
X407909D01*
X408133Y276196D01*
D02*
G37*
G36*
X447000Y256500D02*
X419704D01*
Y260796D01*
X420000D01*
X420461Y260887D01*
X420852Y261149D01*
X421020Y261400D01*
X421039Y261387D01*
X421500Y261296D01*
X426000D01*
X426461Y261387D01*
X426852Y261649D01*
X427113Y262039D01*
X427204Y262500D01*
Y274296D01*
X431500D01*
X431961Y274387D01*
X432351Y274648D01*
X432613Y275039D01*
X432704Y275500D01*
Y280500D01*
X432650Y280775D01*
Y281795D01*
X426350D01*
Y281704D01*
X423702D01*
X423256Y281835D01*
Y282228D01*
X423256D01*
Y285772D01*
X423204D01*
Y294350D01*
X423295D01*
Y300650D01*
X423174D01*
X423113Y300961D01*
X422852Y301351D01*
X422461Y301613D01*
X422000Y301704D01*
X419704D01*
Y307000D01*
X447000D01*
Y256500D01*
D02*
G37*
D15*
X429500Y284157D02*
D03*
Y278842D02*
D03*
D16*
X408689Y284000D02*
D03*
Y282031D02*
D03*
Y280063D02*
D03*
Y278095D02*
D03*
Y276126D02*
D03*
X420500D02*
D03*
Y278095D02*
D03*
Y280063D02*
D03*
Y282031D02*
D03*
Y284000D02*
D03*
D17*
X414595Y280063D02*
D03*
D18*
X425658Y297500D02*
D03*
X420342D02*
D03*
X403342D02*
D03*
X408658D02*
D03*
Y264500D02*
D03*
X403342D02*
D03*
D19*
X394500Y285118D02*
D03*
Y274882D02*
D03*
D20*
X418382Y264500D02*
D03*
X423500D02*
D03*
D28*
X414000Y296000D02*
X414500Y296500D01*
X424532Y282031D02*
X425216Y282315D01*
X425500Y283000D01*
X429500Y277842D02*
X429248Y278095D01*
X388500Y282500D02*
X388968Y282031D01*
X420500Y282031D02*
X424532D01*
X408689Y280063D02*
X414595D01*
X420500Y278095D02*
X429248D01*
X405736D02*
X408689D01*
X405736Y278095D02*
Y278095D01*
X388968Y278095D02*
X405736D01*
X388968Y282031D02*
X405736D01*
Y282031D01*
X408689D01*
D29*
X414500Y296500D02*
Y303000D01*
D30*
Y261000D02*
D03*
D31*
Y300000D02*
D03*
D32*
X423750Y270250D02*
D03*
D33*
X425250Y278000D02*
D03*
D34*
X408500Y269500D02*
D03*
D35*
X413500Y264500D02*
D03*
D36*
X420500Y292000D02*
D03*
X408500D02*
D03*
D37*
X414750Y298500D02*
D03*
D38*
X437992Y295276D02*
D03*
Y275591D02*
D03*
X433071Y265748D02*
D03*
X398622Y295276D02*
D03*
X393701Y265748D02*
D03*
X388779Y295276D02*
D03*
X383858Y285433D02*
D03*
Y265748D02*
D03*
X414500Y261500D02*
D03*
Y267000D02*
D03*
Y296500D02*
D03*
Y302000D02*
D03*
Y282842D02*
D03*
Y278000D02*
D03*
X398500Y264500D02*
D03*
X434500Y284500D02*
D03*
X425500Y302500D02*
D03*
X403000D02*
D03*
M02*
