G04*
G04 #@! TF.GenerationSoftware,Altium Limited,Altium Designer,20.0.2 (26)*
G04*
G04 Layer_Physical_Order=2*
G04 Layer_Color=16711680*
%FSLAX25Y25*%
%MOIN*%
G70*
G01*
G75*
%ADD38C,0.02362*%
%ADD39R,0.11811X0.11811*%
%ADD40R,0.11811X0.07874*%
%ADD41R,0.11811X0.05000*%
%ADD42R,0.11811X0.04000*%
G36*
X447000Y256500D02*
X421587D01*
Y264943D01*
X421598Y265000D01*
Y269000D01*
X421506Y269461D01*
X421245Y269851D01*
X420855Y270113D01*
X420394Y270204D01*
X408583D01*
X408122Y270113D01*
X407731Y269851D01*
X407470Y269461D01*
X407378Y269000D01*
Y265000D01*
X407413Y264824D01*
Y256500D01*
X382000D01*
Y307000D01*
X407413D01*
Y299557D01*
X407402Y299500D01*
Y294500D01*
X407494Y294039D01*
X407755Y293649D01*
X408146Y293387D01*
X408606Y293296D01*
X420417D01*
X420878Y293387D01*
X421269Y293649D01*
X421530Y294039D01*
X421622Y294500D01*
Y299500D01*
X421587Y299676D01*
Y307000D01*
X447000D01*
Y256500D01*
D02*
G37*
D38*
X437992Y295276D02*
D03*
Y275591D02*
D03*
X433071Y265748D02*
D03*
X398622Y295276D02*
D03*
X393701Y265748D02*
D03*
X388779Y295276D02*
D03*
X383858Y285433D02*
D03*
Y265748D02*
D03*
X414500Y261500D02*
D03*
Y267000D02*
D03*
Y296500D02*
D03*
Y302000D02*
D03*
Y282842D02*
D03*
Y278000D02*
D03*
X398500Y264500D02*
D03*
X434500Y284500D02*
D03*
X425500Y302500D02*
D03*
X403000D02*
D03*
D39*
X414500Y281000D02*
D03*
D40*
Y302500D02*
D03*
Y261500D02*
D03*
D41*
X414512Y297000D02*
D03*
D42*
X414488Y267000D02*
D03*
M02*
